#Comment line ignore any data following # character 
#Hierarchical Translation and Rotation (.htr) file 
[Header]	
#Header keywords are followed by a single value 
FileType HTR		#Single word string
DataType HTRS		#Translation followed by rotation and scale data
FileVersion 1		#integer
NumSegments 84		#integer
NumFrames 2		#integer
DataFrameRate 30		#integer, data frame rate in this file
EulerRotationOrder ZYX
CalibrationUnits mm
RotationUnits Degrees
GlobalAxisofGravity Y
BoneLengthAxis Y
ScaleFactor 1.00
[SegmentNames&Hierarchy]
#CHILD	PARENT
MASTER GLOBAL
root MASTER
chest root
L_mid_tent01 root
R_mid_tent01 root
spine01 root
Bip01_Neck chest
L_humerus chest
R_humerus chest
weapon_bone chest
Bip01_Head Bip01_Neck
eye_left_bone Bip01_Head
eye_right_bone Bip01_Head
L_forearm L_humerus
L_front_hand L_forearm
L_weapon_bone L_forearm
L_front_hand01_01 L_front_hand
L_front_hand02_01 L_front_hand
L_front_hand03_01 L_front_hand
L_front_hand01_02 L_front_hand01_01
L_front_hand02_02 L_front_hand02_01
L_front_hand03_02 L_front_hand03_01
R_forearm R_humerus
R_front_hand R_forearm
R_weapon_bone R_forearm
R_front_hand01_01 R_front_hand
R_front_hand02_01 R_front_hand
R_front_hand03_01 R_front_hand
R_front_hand01_02 R_front_hand01_01
R_front_hand02_02 R_front_hand02_01
R_front_hand03_02 R_front_hand03_01
null_rope01_connect L_mid_tent01
Rope1_Seg01 null_rope01_connect
Rope1_Seg02 Rope1_Seg01
Rope1_Seg03 Rope1_Seg02
Rope1_Seg04 Rope1_Seg03
Rope1_Seg05 Rope1_Seg04
Rope1_Seg06 Rope1_Seg05
Rope1_Seg07 Rope1_Seg06
Rope1_Seg09 Rope1_Seg07
L_mid_hand01 Rope1_Seg09
L_mid_hand02 Rope1_Seg09
L_mid_hand03 Rope1_Seg09
null_rope02_connect R_mid_tent01
Rope2_Seg01 null_rope02_connect
Rope2_Seg02 Rope2_Seg01
Rope2_Seg03 Rope2_Seg02
Rope2_Seg04 Rope2_Seg03
Rope2_Seg05 Rope2_Seg04
Rope2_Seg06 Rope2_Seg05
Rope2_Seg07 Rope2_Seg06
Rope2_Seg09 Rope2_Seg07
R_mid_hand01 Rope2_Seg09
R_mid_hand02 Rope2_Seg09
R_mid_hand03 Rope2_Seg09
spine02 spine01
spine03 spine02
pelvis spine03
null_rope03_connect pelvis
null_rope04_connect pelvis
Rope3_Seg01 null_rope03_connect
Rope3_Seg02 Rope3_Seg01
Rope3_Seg03 Rope3_Seg02
Rope3_Seg04 Rope3_Seg03
Rope3_Seg05 Rope3_Seg04
Rope3_Seg06 Rope3_Seg05
Rope3_Seg07 Rope3_Seg06
Rope3_Seg08 Rope3_Seg07
Rope3_Seg09 Rope3_Seg08
R_rear_hand01 Rope3_Seg09
R_rear_hand02 Rope3_Seg09
R_rear_hand03 Rope3_Seg09
Rope4_Seg01 null_rope04_connect
Rope4_Seg02 Rope4_Seg01
Rope4_Seg03 Rope4_Seg02
Rope4_Seg04 Rope4_Seg03
Rope4_Seg05 Rope4_Seg04
Rope4_Seg06 Rope4_Seg05
Rope4_Seg07 Rope4_Seg06
Rope4_Seg08 Rope4_Seg07
Rope4_Seg09 Rope4_Seg08
L_rear_hand01 Rope4_Seg09
L_rear_hand02 Rope4_Seg09
L_rear_hand03 Rope4_Seg09
[BasePosition]
#SegmentName Tx, Ty, Tz, Rx, Ry, Rz, BoneLength
MASTER 0.000000 0.000000 0.000000 -90.000000 0.000000 0.000000 10.000000 
root 0.000000 0.000000 0.000000 0.000000 0.000000 0.000000 10.000000 
chest 0.000000 0.000000 0.000000 0.000000 0.000000 0.000000 10.000000 
L_mid_tent01 0.000000 0.000000 0.000000 0.000000 0.000000 0.000000 10.000000 
R_mid_tent01 0.000000 0.000000 0.000000 0.000000 0.000000 0.000000 10.000000 
spine01 0.000000 0.000000 0.000000 0.000000 0.000000 0.000000 10.000000 
Bip01_Neck 0.000000 0.000000 0.000000 0.000000 0.000000 0.000000 10.000000 
L_humerus 0.000000 0.000000 0.000000 0.000000 0.000000 0.000000 10.000000 
R_humerus 0.000000 0.000000 0.000000 0.000000 0.000000 0.000000 10.000000 
weapon_bone 0.000000 0.000000 0.000000 0.000000 0.000000 0.000000 10.000000 
Bip01_Head 0.000000 0.000000 0.000000 0.000000 0.000000 0.000000 10.000000 
eye_left_bone 0.000000 0.000000 0.000000 0.000000 0.000000 0.000000 10.000000 
eye_right_bone 0.000000 0.000000 0.000000 0.000000 0.000000 0.000000 10.000000 
L_forearm 0.000000 0.000000 0.000000 0.000000 0.000000 0.000000 10.000000 
L_front_hand 0.000000 0.000000 0.000000 0.000000 0.000000 0.000000 10.000000 
L_weapon_bone 0.000000 0.000000 0.000000 0.000000 0.000000 0.000000 10.000000 
L_front_hand01_01 0.000000 0.000000 0.000000 0.000000 0.000000 0.000000 10.000000 
L_front_hand02_01 0.000000 0.000000 0.000000 0.000000 0.000000 0.000000 10.000000 
L_front_hand03_01 0.000000 0.000000 0.000000 0.000000 0.000000 0.000000 10.000000 
L_front_hand01_02 0.000000 0.000000 0.000000 0.000000 0.000000 0.000000 10.000000 
L_front_hand02_02 0.000000 0.000000 0.000000 0.000000 0.000000 0.000000 10.000000 
L_front_hand03_02 0.000000 0.000000 0.000000 0.000000 0.000000 0.000000 10.000000 
R_forearm 0.000000 0.000000 0.000000 0.000000 0.000000 0.000000 10.000000 
R_front_hand 0.000000 0.000000 0.000000 0.000000 0.000000 0.000000 10.000000 
R_weapon_bone 0.000000 0.000000 0.000000 0.000000 0.000000 0.000000 10.000000 
R_front_hand01_01 0.000000 0.000000 0.000000 0.000000 0.000000 0.000000 10.000000 
R_front_hand02_01 0.000000 0.000000 0.000000 0.000000 0.000000 0.000000 10.000000 
R_front_hand03_01 0.000000 0.000000 0.000000 0.000000 0.000000 0.000000 10.000000 
R_front_hand01_02 0.000000 0.000000 0.000000 0.000000 0.000000 0.000000 10.000000 
R_front_hand02_02 0.000000 0.000000 0.000000 0.000000 0.000000 0.000000 10.000000 
R_front_hand03_02 0.000000 0.000000 0.000000 0.000000 0.000000 0.000000 10.000000 
null_rope01_connect 0.000000 0.000000 0.000000 0.000000 0.000000 0.000000 10.000000 
Rope1_Seg01 0.000000 0.000000 0.000000 0.000000 0.000000 0.000000 10.000000 
Rope1_Seg02 0.000000 0.000000 0.000000 0.000000 0.000000 0.000000 10.000000 
Rope1_Seg03 0.000000 0.000000 0.000000 0.000000 0.000000 0.000000 10.000000 
Rope1_Seg04 0.000000 0.000000 0.000000 0.000000 0.000000 0.000000 10.000000 
Rope1_Seg05 0.000000 0.000000 0.000000 0.000000 0.000000 0.000000 10.000000 
Rope1_Seg06 0.000000 0.000000 0.000000 0.000000 0.000000 0.000000 10.000000 
Rope1_Seg07 0.000000 0.000000 0.000000 0.000000 0.000000 0.000000 10.000000 
Rope1_Seg09 0.000000 0.000000 0.000000 0.000000 0.000000 0.000000 10.000000 
L_mid_hand01 0.000000 0.000000 0.000000 0.000000 0.000000 0.000000 10.000000 
L_mid_hand02 0.000000 0.000000 0.000000 0.000000 0.000000 0.000000 10.000000 
L_mid_hand03 0.000000 0.000000 0.000000 0.000000 0.000000 0.000000 10.000000 
null_rope02_connect 0.000000 0.000000 0.000000 0.000000 0.000000 0.000000 10.000000 
Rope2_Seg01 0.000000 0.000000 0.000000 0.000000 0.000000 0.000000 10.000000 
Rope2_Seg02 0.000000 0.000000 0.000000 0.000000 0.000000 0.000000 10.000000 
Rope2_Seg03 0.000000 0.000000 0.000000 0.000000 0.000000 0.000000 10.000000 
Rope2_Seg04 0.000000 0.000000 0.000000 0.000000 0.000000 0.000000 10.000000 
Rope2_Seg05 0.000000 0.000000 0.000000 0.000000 0.000000 0.000000 10.000000 
Rope2_Seg06 0.000000 0.000000 0.000000 0.000000 0.000000 0.000000 10.000000 
Rope2_Seg07 0.000000 0.000000 0.000000 0.000000 0.000000 0.000000 10.000000 
Rope2_Seg09 0.000000 0.000000 0.000000 0.000000 0.000000 0.000000 10.000000 
R_mid_hand01 0.000000 0.000000 0.000000 0.000000 0.000000 0.000000 10.000000 
R_mid_hand02 0.000000 0.000000 0.000000 0.000000 0.000000 0.000000 10.000000 
R_mid_hand03 0.000000 0.000000 0.000000 0.000000 0.000000 0.000000 10.000000 
spine02 0.000000 0.000000 0.000000 0.000000 0.000000 0.000000 10.000000 
spine03 0.000000 0.000000 0.000000 0.000000 0.000000 0.000000 10.000000 
pelvis 0.000000 0.000000 0.000000 0.000000 0.000000 0.000000 10.000000 
null_rope03_connect 0.000000 0.000000 0.000000 0.000000 0.000000 0.000000 10.000000 
null_rope04_connect 0.000000 0.000000 0.000000 0.000000 0.000000 0.000000 10.000000 
Rope3_Seg01 0.000000 0.000000 0.000000 0.000000 0.000000 0.000000 10.000000 
Rope3_Seg02 0.000000 0.000000 0.000000 0.000000 0.000000 0.000000 10.000000 
Rope3_Seg03 0.000000 0.000000 0.000000 0.000000 0.000000 0.000000 10.000000 
Rope3_Seg04 0.000000 0.000000 0.000000 0.000000 0.000000 0.000000 10.000000 
Rope3_Seg05 0.000000 0.000000 0.000000 0.000000 0.000000 0.000000 10.000000 
Rope3_Seg06 0.000000 0.000000 0.000000 0.000000 0.000000 0.000000 10.000000 
Rope3_Seg07 0.000000 0.000000 0.000000 0.000000 0.000000 0.000000 10.000000 
Rope3_Seg08 0.000000 0.000000 0.000000 0.000000 0.000000 0.000000 10.000000 
Rope3_Seg09 0.000000 0.000000 0.000000 0.000000 0.000000 0.000000 10.000000 
R_rear_hand01 0.000000 0.000000 0.000000 0.000000 0.000000 0.000000 10.000000 
R_rear_hand02 0.000000 0.000000 0.000000 0.000000 0.000000 0.000000 10.000000 
R_rear_hand03 0.000000 0.000000 0.000000 0.000000 0.000000 0.000000 10.000000 
Rope4_Seg01 0.000000 0.000000 0.000000 0.000000 0.000000 0.000000 10.000000 
Rope4_Seg02 0.000000 0.000000 0.000000 0.000000 0.000000 0.000000 10.000000 
Rope4_Seg03 0.000000 0.000000 0.000000 0.000000 0.000000 0.000000 10.000000 
Rope4_Seg04 0.000000 0.000000 0.000000 0.000000 0.000000 0.000000 10.000000 
Rope4_Seg05 0.000000 0.000000 0.000000 0.000000 0.000000 0.000000 10.000000 
Rope4_Seg06 0.000000 0.000000 0.000000 0.000000 0.000000 0.000000 10.000000 
Rope4_Seg07 0.000000 0.000000 0.000000 0.000000 0.000000 0.000000 10.000000 
Rope4_Seg08 0.000000 0.000000 0.000000 0.000000 0.000000 0.000000 10.000000 
Rope4_Seg09 0.000000 0.000000 0.000000 0.000000 0.000000 0.000000 10.000000 
L_rear_hand01 0.000000 0.000000 0.000000 0.000000 0.000000 0.000000 10.000000 
L_rear_hand02 0.000000 0.000000 0.000000 0.000000 0.000000 0.000000 10.000000 
L_rear_hand03 0.000000 0.000000 0.000000 0.000000 0.000000 0.000000 10.000000 
#Beginning of Data. Separated by tabs
#Fr	Tx	Ty	Tz	Rx	Ry	Rz	SF
[MASTER]
21 0.000000 0.000000 0.000000 0.001660 0.001660 0.001660 0.000000
22 0.000000 0.000000 0.000000 0.001660 0.001660 0.001660 0.000000
[root]
21 561.169861 -30.310617 1461.430420 -86.111717 -29.551067 -87.595589 1565.761597
22 540.316345 -21.551046 1466.405273 -83.856491 -26.977339 -86.908005 1562.930054
[chest]
21 -84.512650 -34.090519 0.000000 4.594644 2.229899 172.125778 91.129311
22 -84.512650 -34.090519 0.000000 4.285344 2.110926 171.823502 91.129311
[L_mid_tent01]
21 27.299173 22.178904 -249.918594 -11.144688 30.304241 46.304462 252.381561
22 27.299168 22.178926 -249.918594 -12.121356 29.347462 43.980465 252.381561
[R_mid_tent01]
21 23.228794 24.509907 226.238495 173.652832 -26.966614 63.170616 228.744751
22 23.228794 24.509907 226.238495 175.163208 -26.819916 60.583096 228.744751
[spine01]
21 -0.361383 -0.195265 0.000000 0.001929 0.001338 20.506514 0.410763
22 -0.361383 -0.195265 0.000000 0.001930 0.001336 20.603107 0.410763
[Bip01_Neck]
21 165.484543 71.581718 0.000119 176.643677 -1.657967 43.431911 180.302734
22 165.484543 71.581718 0.000119 176.643677 -1.657967 43.431911 180.302734
[L_humerus]
21 -13.983130 -135.272980 -120.471481 164.757782 44.008289 -155.829880 181.680161
22 -13.983130 -135.272980 -120.471481 162.253006 47.454479 -155.315140 181.680161
[R_humerus]
21 -13.983309 -135.273102 125.287651 -165.611618 -33.185005 -141.454346 184.909012
22 -13.983309 -135.273102 125.287651 -163.949554 -37.313782 -140.127670 184.909012
[weapon_bone]
21 235.964890 -300.705902 0.000000 0.000000 -89.951546 -128.212341 382.234833
22 235.964890 -300.705902 0.000000 0.000000 -89.951546 -128.212341 382.234833
[Bip01_Head]
21 213.444199 185.715500 11.776927 2.951991 8.187969 -41.911945 283.173737
22 213.444199 185.715500 11.776928 3.463665 6.955191 -42.365265 283.173737
[eye_left_bone]
21 -24.626970 125.451866 -64.772606 0.000000 -90.000000 -99.840431 143.318359
22 -24.626970 125.451866 -64.772606 0.000000 -90.000000 -99.840431 143.318359
[eye_right_bone]
21 -24.626970 125.451866 64.327362 0.000000 -89.965736 80.156380 143.117676
22 -24.626970 125.451866 64.327362 0.000000 -89.965736 80.156380 143.117676
[L_forearm]
21 322.776093 0.000000 -0.000119 0.000165 -0.002342 -98.040642 322.776093
22 322.776093 0.000000 -0.000119 0.000228 -0.002336 -101.129860 322.776093
[L_front_hand]
21 241.149185 -0.042021 -3.300071 149.893951 -1.837326 -27.423067 241.171753
22 241.149185 -0.042021 -3.300071 149.893951 -1.837326 -27.423067 241.171753
[L_weapon_bone]
21 156.183838 0.000000 0.000000 0.000014 0.000007 0.000001 156.183838
22 156.183838 0.000000 0.000000 0.000014 0.000007 0.000001 156.183838
[L_front_hand01_01]
21 86.095154 20.947098 -0.655860 -0.366594 -0.477154 75.385574 88.609184
22 86.095154 20.947098 -0.655860 -0.366594 -0.477154 75.385574 88.609184
[L_front_hand02_01]
21 86.935165 -11.437475 24.513514 154.399796 -59.883835 -61.369587 91.046425
22 86.935165 -11.437475 24.513514 154.399796 -59.883835 -61.369587 91.046425
[L_front_hand03_01]
21 86.637497 -14.123976 -20.424902 -153.913849 58.118122 -62.702866 90.126129
22 86.637497 -14.123976 -20.424902 -153.913849 58.118122 -62.702866 90.126129
[L_front_hand01_02]
21 71.020905 -0.000179 0.000030 0.000334 -0.002323 -106.379684 71.020905
22 71.020905 -0.000179 0.000030 0.000334 -0.002323 -106.379684 71.020905
[L_front_hand02_02]
21 71.020927 -0.000119 0.000060 0.000334 -0.002323 -106.379684 71.020927
22 71.020927 -0.000119 0.000060 0.000334 -0.002323 -106.379684 71.020927
[L_front_hand03_02]
21 71.020905 -0.000060 0.000060 0.000334 -0.002323 -106.379684 71.020905
22 71.020905 -0.000060 0.000060 0.000334 -0.002323 -106.379684 71.020905
[R_forearm]
21 322.776428 -0.000060 0.000030 0.210935 -0.022428 -85.103859 322.776428
22 322.776428 -0.000060 0.000030 0.213250 -0.009944 -89.032104 322.776428
[R_front_hand]
21 238.847015 -0.006795 2.210259 -8.879457 -10.642941 -26.315098 238.857239
22 238.847015 -0.006795 2.210259 -8.879457 -10.642941 -26.315098 238.857239
[R_weapon_bone]
21 155.664093 0.002503 -0.000030 0.003487 0.001180 -90.988930 155.664078
22 155.664093 0.002503 -0.000030 0.003487 0.001180 -90.988930 155.664078
[R_front_hand01_01]
21 87.624611 14.231146 22.918642 -154.633499 -59.950619 61.746044 91.683487
22 87.624611 14.231146 22.918642 -154.633499 -59.950619 61.746044 91.683487
[R_front_hand02_01]
21 89.356956 14.367283 -19.491137 154.602661 58.302849 63.744389 92.579636
22 89.356956 14.367283 -19.491137 154.602661 58.302849 63.744389 92.579636
[R_front_hand03_01]
21 87.286232 -22.307278 -0.143439 0.162155 -0.423168 -75.767921 90.091743
22 87.286232 -22.307278 -0.143439 0.162155 -0.423168 -75.767921 90.091743
[R_front_hand01_02]
21 71.020905 0.000060 0.000119 0.002323 -0.000334 106.381714 71.020905
22 71.020905 0.000060 0.000119 0.002323 -0.000334 106.381714 71.020905
[R_front_hand02_02]
21 71.020844 -0.000030 -0.000119 0.002323 -0.000334 106.381714 71.020836
22 71.020844 -0.000030 -0.000119 0.002323 -0.000334 106.381714 71.020836
[R_front_hand03_02]
21 71.020905 0.000000 0.000030 0.002323 -0.000334 106.381714 71.020905
22 71.020905 0.000000 0.000030 0.002323 -0.000334 106.381714 71.020905
[null_rope01_connect]
21 328.732483 0.000000 -0.000238 -128.161621 -63.378616 -161.690643 328.732483
22 328.732483 0.000000 -0.000238 -130.122650 -66.478630 -160.289734 328.732483
[Rope1_Seg01]
21 0.000025 -0.000051 0.000085 -112.934914 53.511978 -109.856194 0.000102
22 0.000029 -0.000050 0.000089 -98.803955 53.733227 -101.383812 0.000106
[Rope1_Seg02]
21 139.999863 -0.000179 0.000000 -13.204154 8.380099 0.058386 139.999863
22 139.999863 -0.000179 0.000000 -9.423949 7.785685 -1.615961 139.999863
[Rope1_Seg03]
21 139.999924 0.000060 -0.000060 -1.455498 1.150309 -0.299837 139.999924
22 139.999924 0.000060 -0.000060 0.979426 0.821666 -1.608725 139.999924
[Rope1_Seg04]
21 139.999924 -0.000060 -0.000119 -21.618624 8.804357 3.772887 139.999924
22 139.999924 -0.000060 -0.000119 -24.387476 10.384375 3.229841 139.999924
[Rope1_Seg05]
21 139.999832 0.000119 -0.000060 -22.033451 7.251688 7.623753 139.999832
22 139.999832 0.000119 -0.000060 -25.207390 8.361283 8.318984 139.999832
[Rope1_Seg06]
21 139.999954 0.000119 -0.000060 -8.151028 1.812921 4.525149 139.999954
22 139.999954 0.000119 -0.000060 -8.733784 1.882286 4.924492 139.999954
[Rope1_Seg07]
21 139.999985 0.000060 0.000000 -4.471994 0.744891 3.056521 139.999985
22 139.999985 0.000060 0.000000 -4.684376 0.716421 3.309076 139.999985
[Rope1_Seg09]
21 121.602913 0.000119 -0.000089 -89.793175 -1.359789 0.847147 121.602913
22 121.602913 0.000119 -0.000089 -89.793175 -1.359789 0.847147 121.602913
[L_mid_hand01]
21 103.859421 1.038730 8.195221 109.056198 -40.604698 -13.201401 104.187431
22 103.859421 1.038730 8.195221 109.056198 -40.604698 -13.201401 104.187431
[L_mid_hand02]
21 105.572853 -4.139662 -10.864139 -146.713593 31.476528 -37.902313 106.211075
22 105.572853 -4.139662 -10.864139 -146.713593 31.476528 -37.902313 106.211075
[L_mid_hand03]
21 104.641464 17.579376 -3.913581 -14.267233 12.322316 43.898396 106.179977
22 104.641464 17.579376 -3.913581 -14.267233 12.322316 43.898396 106.179977
[null_rope02_connect]
21 328.732849 0.000179 -0.000119 -112.628281 57.098076 9.114132 328.732849
22 328.732849 0.000179 -0.000119 -117.230392 55.126816 4.688344 328.732849
[Rope2_Seg01]
21 0.000036 0.000097 0.000051 59.112228 13.003047 -46.883110 0.000116
22 0.000040 0.000099 0.000048 37.142231 9.735188 -44.767311 0.000116
[Rope2_Seg02]
21 139.999741 -0.000060 -0.000119 21.839336 -2.211007 -2.581217 139.999756
22 139.999741 -0.000060 -0.000119 21.144512 0.012810 -3.402469 139.999756
[Rope2_Seg03]
21 140.000107 0.000030 0.000000 15.479422 -3.156286 -1.890398 140.000107
22 140.000107 0.000030 0.000000 23.814421 -1.308720 -3.449077 140.000107
[Rope2_Seg04]
21 139.999802 0.000000 -0.000060 14.432509 -5.086285 -2.005058 139.999802
22 139.999802 0.000000 -0.000060 27.398573 -4.322245 -4.440307 139.999802
[Rope2_Seg05]
21 139.999985 -0.000060 0.000119 -7.368640 1.746855 1.316683 139.999985
22 139.999985 -0.000060 0.000119 -6.615215 1.782633 0.641814 139.999985
[Rope2_Seg06]
21 139.999893 -0.000030 -0.000119 -28.917545 6.394016 3.498726 139.999893
22 139.999893 -0.000030 -0.000119 -45.257813 7.345334 3.541846 139.999893
[Rope2_Seg07]
21 139.999893 0.000060 -0.000060 -18.849533 1.986162 3.403107 139.999893
22 139.999893 0.000060 -0.000060 -26.227873 1.462489 4.283682 139.999893
[Rope2_Seg09]
21 121.338966 0.000089 -0.000060 33.793236 -1.359788 -0.847141 121.338966
22 121.338966 0.000089 -0.000060 33.793236 -1.359788 -0.847141 121.338966
[R_mid_hand01]
21 104.680779 11.144459 -10.335981 -37.204079 31.906813 37.576260 105.778534
22 104.680779 11.144459 -10.335981 -37.204079 31.906813 37.576260 105.778534
[R_mid_hand02]
21 104.070427 2.443552 8.231699 70.367462 -42.427391 14.067809 104.424065
22 104.070427 2.443552 8.231699 70.367462 -42.427391 14.067809 104.424065
[R_mid_hand03]
21 106.028137 -11.221827 -5.996406 -169.893616 12.226661 -47.211029 106.788818
22 106.028137 -11.221827 -5.996406 -169.893616 12.226661 -47.211018 106.788818
[spine02]
21 129.756927 0.001550 0.000119 0.020674 -4.060881 -8.143674 129.756927
22 129.756927 0.001550 0.000119 0.041883 -4.060854 -8.443353 129.756927
[spine03]
21 78.614052 0.082753 -4.898981 1.694982 3.924287 13.500051 78.766594
22 78.614052 0.082693 -4.898983 1.707625 3.918835 13.686362 78.766594
[pelvis]
21 169.435242 0.051022 0.000000 -0.039172 -0.185961 8.080644 169.435257
22 169.435242 0.051022 0.000000 -0.040408 -0.185615 8.458295 169.435257
[null_rope03_connect]
21 -1.257226 -2.466202 137.391083 48.009636 -83.834328 37.525394 137.418976
22 -1.257226 -2.466202 137.391083 44.356911 -81.257805 38.159374 137.418976
[null_rope04_connect]
21 -1.259640 -2.480268 -137.844437 48.009636 -83.834328 37.525394 137.872513
22 -1.259640 -2.480268 -137.844437 44.356911 -81.257805 38.159374 137.872513
[Rope3_Seg01]
21 0.000010 0.000038 -0.000114 -133.912460 -33.010509 -76.196884 0.000121
22 0.000010 0.000038 -0.000114 -132.350510 -27.315983 -77.720406 0.000121
[Rope3_Seg02]
21 139.999924 -0.000119 0.000060 0.263803 -1.747014 -0.971843 139.999924
22 139.999924 -0.000119 0.000060 0.139439 -1.544407 -1.780904 139.999924
[Rope3_Seg03]
21 139.999924 -0.000119 0.000119 0.520948 -1.801073 1.581303 139.999924
22 139.999924 -0.000119 0.000119 0.331000 -1.744636 0.135110 139.999924
[Rope3_Seg04]
21 139.999924 0.000119 0.000000 0.724066 -1.837671 7.172009 139.999924
22 139.999924 0.000119 0.000000 0.665860 -2.280009 6.452284 139.999924
[Rope3_Seg05]
21 139.999924 -0.000238 0.000060 -1.907499 -1.126065 -17.409300 139.999924
22 139.999924 -0.000238 0.000060 -2.068894 -0.266202 -16.927605 139.999924
[Rope3_Seg06]
21 139.999893 -0.000119 -0.000060 -16.059731 0.486663 -34.219574 139.999893
22 139.999893 -0.000119 -0.000060 -15.212717 2.217443 -32.485710 139.999893
[Rope3_Seg07]
21 139.999771 0.000060 -0.000119 -15.336671 3.948662 -13.982847 139.999771
22 139.999771 0.000060 -0.000119 -13.107669 4.227653 -13.298599 139.999771
[Rope3_Seg08]
21 139.999985 -0.000060 0.000000 -9.478393 3.531202 -5.983400 139.999985
22 139.999985 -0.000060 0.000000 -7.885881 3.392264 -5.833815 139.999985
[Rope3_Seg09]
21 90.185997 -0.000179 -0.000060 89.793228 -1.359877 -0.847183 90.185997
22 90.185997 -0.000179 -0.000060 89.793228 -1.359877 -0.847183 90.185997
[R_rear_hand01]
21 103.366196 -6.073594 -10.757982 -164.755127 19.627697 -40.352161 104.101845
22 103.366196 -6.073594 -10.757982 -164.755127 19.627697 -40.352161 104.101845
[R_rear_hand02]
21 100.509819 12.039542 -7.992327 -30.792652 24.782448 38.141541 101.543350
22 100.509819 12.039542 -7.992327 -30.792652 24.782448 38.141541 101.543350
[R_rear_hand03]
21 101.539970 5.215704 5.435467 82.448349 -41.048256 8.840378 101.819031
22 101.539970 5.215704 5.435467 82.448349 -41.048256 8.840378 101.819031
[Rope4_Seg01]
21 -0.000014 -0.000034 -0.000153 65.178902 -31.874054 -130.119110 0.000157
22 -0.000014 -0.000032 -0.000153 58.582760 -26.145271 -122.492859 0.000156
[Rope4_Seg02]
21 139.999985 0.000060 0.000119 8.512229 -10.983897 9.523694 139.999985
22 139.999985 0.000060 0.000119 5.718098 -10.773567 8.109657 139.999985
[Rope4_Seg03]
21 139.999924 0.000000 -0.000238 10.787512 -5.276676 15.553388 139.999924
22 139.999924 0.000000 -0.000238 8.953456 -7.743316 14.895014 139.999924
[Rope4_Seg04]
21 139.999985 0.000000 0.000119 7.193311 -2.932733 11.845372 139.999985
22 139.999985 0.000000 0.000119 7.272851 -5.517021 12.627742 139.999985
[Rope4_Seg05]
21 139.999802 -0.000060 -0.000119 8.910028 -25.561426 -4.983650 139.999802
22 139.999802 -0.000060 -0.000119 5.662241 -26.425156 -10.054626 139.999802
[Rope4_Seg06]
21 139.999924 0.000000 0.000060 25.177382 -22.332802 -3.219642 139.999924
22 139.999924 0.000000 0.000060 8.613380 -20.168884 -7.872893 139.999924
[Rope4_Seg07]
21 139.999802 0.000000 0.000000 36.842415 -8.116244 3.488452 139.999802
22 139.999802 0.000000 0.000000 38.029297 -8.622512 -1.049984 139.999802
[Rope4_Seg08]
21 139.999924 0.000000 0.000119 22.990986 -2.350267 4.113466 139.999924
22 139.999924 0.000000 0.000119 65.505898 -3.959696 2.391181 139.999924
[Rope4_Seg09]
21 90.185791 0.000060 0.000060 -135.617828 2.228885 0.850567 90.185791
22 90.185791 0.000060 0.000060 -135.617828 2.228885 0.850567 90.185791
[L_rear_hand01]
21 101.696655 -8.392275 -7.654577 -31.684452 -23.583008 144.025742 102.329041
22 101.696655 -8.392275 -7.654577 -31.684452 -23.583008 144.025742 102.329041
[L_rear_hand02]
21 102.726799 -1.568258 5.773216 82.701553 38.753956 171.553619 102.900848
22 102.726799 -1.568258 5.773216 82.701553 38.753956 171.553619 102.900848
[L_rear_hand03]
21 104.552910 9.721220 -10.420293 -163.975388 -19.004423 -142.009338 105.519653
22 104.552910 9.721220 -10.420293 -163.975403 -19.004421 -142.009338 105.519653
